PathFileType	4	(X/Y/Z)	 D:\Google Drive\Share to the world\OpenSim\ScaleTool\TRC\Walk_Mkrs.trc
DataRate	CameraRate	NumFrames	NumMarkers	Units	OrigDataRate	OrigDataStartFrame	OrigNumFrames
100	100	8	34	m	100	1	542
Frame#	time	C7			T10			CLAV			STRN			LSHO			LELB			LWRA			LWRB			LFIN			RSHO			RELB			RWRA			RWRB			RFIN			LASI			RASI			LPSI			RPSI			LTHI			LKNE			LTIB			LANK			LHEE			LTOE			RTHI			RKNE			RTIB			RANK			RHEE			RTOE			RPINKY			LPINKY			INRKNE			INLKNE			
		X1	Y1	Z1	X2	Y2	Z2	X3	Y3	Z3	X4	Y4	Z4	X5	Y5	Z5	X6	Y6	Z6	X7	Y7	Z7	X8	Y8	Z8	X9	Y9	Z9	X10	Y10	Z10	X11	Y11	Z11	X12	Y12	Z12	X13	Y13	Z13	X14	Y14	Z14	X15	Y15	Z15	X16	Y16	Z16	X17	Y17	Z17	X18	Y18	Z18	X19	Y19	Z19	X20	Y20	Z20	X21	Y21	Z21	X22	Y22	Z22	X23	Y23	Z23	X24	Y24	Z24	X25	Y25	Z25	X26	Y26	Z26	X27	Y27	Z27	X28	Y28	Z28	X29	Y29	Z29	X30	Y30	Z30	X31	Y31	Z31	X32	Y32	Z32	X33	Y33	Z33	X34	Y34	Z34	

1	0.0000	-2.160960	1.504020	0.211840	-2.200550	1.255810	0.208280	-2.020460	1.399260	0.227060	-1.991050	1.246970	0.224350	-2.086350	1.470220	0.041550	-2.074830	1.155680	-0.038540	-1.978360	0.921010	0.012570	-2.026370	0.911640	-0.034340	-1.976560	0.845630	-0.033020	-2.113570	1.469320	0.391360	-2.143760	1.152840	0.492280	-2.030110	0.929430	0.459220	-2.072540	0.921770	0.502200	-2.033250	0.859910	0.500860	-2.005260	0.978640	0.100830	-2.028440	0.982190	0.367040	-2.167290	1.088290	0.167570	-2.173550	1.088130	0.254120	-2.084280	0.681240	0.049550	-2.124730	0.495020	0.065950	-2.156360	0.296930	0.048390	-2.145430	0.089590	0.086830	-2.194940	0.106750	0.126190	-1.994840	0.050660	0.139120	-2.108700	0.683090	0.387630	-2.122140	0.493040	0.365440	-2.147850	0.317630	0.373250	-2.138840	0.072380	0.322420	-2.192410	0.093060	0.277220	-1.984230	0.050370	0.301020	-2.037770	0.032160	0.356140	-2.041460	0.041420	0.054390	-2.115780	0.491840	0.263030	-2.140030	0.483490	0.168770	
2	0.0100	-2.160670	1.504030	0.212080	-2.200330	1.255850	0.208450	-2.020150	1.399250	0.227320	-1.990850	1.246920	0.224560	-2.086020	1.470230	0.041800	-2.074180	1.155690	-0.038270	-1.977610	0.921140	0.012990	-2.025470	0.911710	-0.033970	-1.975600	0.845740	-0.032600	-2.113360	1.469290	0.391590	-2.143640	1.152830	0.492530	-2.030000	0.929400	0.459490	-2.072430	0.921770	0.502460	-2.033090	0.859930	0.501140	-2.005130	0.978610	0.100980	-2.028440	0.982160	0.367190	-2.167150	1.088330	0.167680	-2.173450	1.088160	0.254240	-2.084230	0.681240	0.049610	-2.124690	0.495020	0.065990	-2.156340	0.296930	0.048410	-2.145420	0.089580	0.086830	-2.194930	0.106730	0.126200	-1.994840	0.050650	0.139110	-2.108700	0.683080	0.387710	-2.122180	0.493020	0.365510	-2.147900	0.317620	0.373310	-2.138860	0.072360	0.322420	-2.192430	0.093050	0.277230	-1.984240	0.050380	0.301020	-2.037780	0.032150	0.356130	-2.041460	0.041430	0.054390	-2.115820	0.491840	0.263110	-2.139980	0.483480	0.168810	
3	0.0200	-2.160380	1.504050	0.212320	-2.200120	1.255900	0.208620	-2.019850	1.399240	0.227580	-1.990640	1.246880	0.224780	-2.085690	1.470250	0.042050	-2.073530	1.155710	-0.037990	-1.976870	0.921260	0.013410	-2.024570	0.911790	-0.033610	-1.974630	0.845860	-0.032170	-2.113160	1.469250	0.391810	-2.143530	1.152820	0.492780	-2.029890	0.929360	0.459760	-2.072320	0.921780	0.502720	-2.032930	0.859940	0.501420	-2.005000	0.978580	0.101140	-2.028440	0.982130	0.367330	-2.167000	1.088370	0.167790	-2.173350	1.088190	0.254350	-2.084180	0.681250	0.049670	-2.124650	0.495020	0.066020	-2.156330	0.296930	0.048420	-2.145410	0.089570	0.086830	-2.194920	0.106700	0.126200	-1.994840	0.050640	0.139100	-2.108710	0.683060	0.387790	-2.122220	0.493000	0.365590	-2.147940	0.317600	0.373360	-2.138880	0.072350	0.322430	-2.192450	0.093040	0.277240	-1.984260	0.050380	0.301030	-2.037800	0.032140	0.356130	-2.041460	0.041430	0.054380	-2.115860	0.491840	0.263180	-2.139930	0.483460	0.168840	
4	0.0300	-2.160090	1.504060	0.212550	-2.199900	1.255930	0.208780	-2.019570	1.399230	0.227830	-1.990450	1.246830	0.224990	-2.085360	1.470260	0.042290	-2.072900	1.155730	-0.037730	-1.976150	0.921390	0.013840	-2.023680	0.911860	-0.033250	-1.973670	0.845990	-0.031750	-2.112960	1.469210	0.392030	-2.143410	1.152810	0.493020	-2.029820	0.929320	0.460020	-2.072200	0.921780	0.502990	-2.032780	0.859940	0.501710	-2.004880	0.978540	0.101290	-2.028450	0.982110	0.367480	-2.166860	1.088410	0.167900	-2.173260	1.088220	0.254460	-2.084130	0.681240	0.049730	-2.124610	0.495020	0.066050	-2.156310	0.296930	0.048420	-2.145410	0.089550	0.086820	-2.194920	0.106680	0.126190	-1.994840	0.050640	0.139090	-2.108720	0.683040	0.387880	-2.122260	0.492980	0.365670	-2.147980	0.317590	0.373420	-2.138900	0.072340	0.322440	-2.192470	0.093030	0.277260	-1.984280	0.050380	0.301030	-2.037810	0.032130	0.356130	-2.041460	0.041430	0.054360	-2.115900	0.491850	0.263250	-2.139900	0.483450	0.168860	
5	0.0400	-2.159810	1.504080	0.212770	-2.199690	1.255960	0.208920	-2.019300	1.399200	0.228070	-1.990250	1.246780	0.225200	-2.085040	1.470270	0.042520	-2.072300	1.155740	-0.037470	-1.975450	0.921520	0.014270	-2.022790	0.911930	-0.032880	-1.972710	0.846130	-0.031330	-2.112770	1.469170	0.392240	-2.143300	1.152800	0.493260	-2.029770	0.929280	0.460280	-2.072090	0.921770	0.503260	-2.032640	0.859930	0.502000	-2.004760	0.978500	0.101450	-2.028460	0.982070	0.367630	-2.166730	1.088450	0.168000	-2.173170	1.088250	0.254570	-2.084080	0.681240	0.049790	-2.124590	0.495020	0.066070	-2.156300	0.296930	0.048410	-2.145400	0.089540	0.086810	-2.194930	0.106660	0.126170	-1.994850	0.050640	0.139080	-2.108730	0.683030	0.387970	-2.122300	0.492960	0.365750	-2.148020	0.317580	0.373480	-2.138920	0.072330	0.322450	-2.192490	0.093030	0.277280	-1.984300	0.050390	0.301030	-2.037830	0.032120	0.356140	-2.041470	0.041430	0.054350	-2.115940	0.491850	0.263330	-2.139890	0.483440	0.168880	
6	0.0500	-2.159540	1.504090	0.212980	-2.199490	1.255990	0.209050	-2.019050	1.399170	0.228310	-1.990060	1.246720	0.225420	-2.084710	1.470290	0.042740	-2.071720	1.155760	-0.037220	-1.974750	0.921650	0.014700	-2.021910	0.912000	-0.032510	-1.971750	0.846270	-0.030910	-2.112590	1.469130	0.392460	-2.143190	1.152780	0.493480	-2.029770	0.929230	0.460540	-2.071980	0.921760	0.503540	-2.032500	0.859920	0.502310	-2.004660	0.978450	0.101610	-2.028470	0.982040	0.367790	-2.166610	1.088480	0.168110	-2.173080	1.088280	0.254680	-2.084030	0.681230	0.049840	-2.124570	0.495020	0.066100	-2.156280	0.296920	0.048400	-2.145410	0.089520	0.086790	-2.194930	0.106640	0.126150	-1.994850	0.050630	0.139080	-2.108750	0.683010	0.388070	-2.122340	0.492950	0.365830	-2.148060	0.317570	0.373550	-2.138940	0.072320	0.322470	-2.192520	0.093020	0.277300	-1.984320	0.050390	0.301040	-2.037850	0.032110	0.356140	-2.041480	0.041420	0.054330	-2.115980	0.491850	0.263410	-2.139900	0.483420	0.168890	
7	0.0600	-2.159270	1.504100	0.213180	-2.199290	1.256010	0.209160	-2.018820	1.399130	0.228550	-1.989880	1.246660	0.225630	-2.084380	1.470300	0.042960	-2.071170	1.155780	-0.036980	-1.974000	0.921800	0.015110	-2.021040	0.912080	-0.032140	-1.970800	0.846430	-0.030490	-2.112420	1.469080	0.392660	-2.143070	1.152760	0.493700	-2.029800	0.929170	0.460790	-2.071880	0.921750	0.503830	-2.032370	0.859890	0.502620	-2.004580	0.978390	0.101770	-2.028490	0.982000	0.367950	-2.166490	1.088510	0.168210	-2.172990	1.088310	0.254780	-2.083990	0.681220	0.049900	-2.124560	0.495010	0.066120	-2.156270	0.296920	0.048380	-2.145410	0.089510	0.086770	-2.194950	0.106620	0.126120	-1.994870	0.050630	0.139070	-2.108770	0.683000	0.388170	-2.122390	0.492930	0.365920	-2.148100	0.317560	0.373610	-2.138960	0.072310	0.322490	-2.192540	0.093020	0.277320	-1.984340	0.050390	0.301050	-2.037860	0.032100	0.356150	-2.041480	0.041420	0.054310	-2.116010	0.491860	0.263490	-2.139930	0.483400	0.168900	
8	0.0700	-2.159000	1.504100	0.213360	-2.199090	1.256020	0.209260	-2.018610	1.399080	0.228780	-1.989720	1.246600	0.225840	-2.084040	1.470300	0.043160	-2.070640	1.155790	-0.036750	-1.973160	0.921980	0.015500	-2.020180	0.912170	-0.031760	-1.969850	0.846590	-0.030060	-2.112260	1.469040	0.392870	-2.142960	1.152740	0.493910	-2.029870	0.929110	0.461030	-2.071780	0.921720	0.504120	-2.032250	0.859860	0.502930	-2.004500	0.978330	0.101940	-2.028500	0.981960	0.368110	-2.166380	1.088530	0.168310	-2.172900	1.088330	0.254890	-2.083950	0.681210	0.049960	-2.124560	0.495010	0.066150	-2.156270	0.296920	0.048370	-2.145420	0.089490	0.086740	-2.194960	0.106610	0.126090	-1.994880	0.050630	0.139060	-2.108810	0.682980	0.388280	-2.122440	0.492920	0.366010	-2.148140	0.317560	0.373670	-2.138980	0.072300	0.322500	-2.192560	0.093010	0.277340	-1.984360	0.050400	0.301050	-2.037880	0.032090	0.356150	-2.041490	0.041420	0.054290	-2.116050	0.491860	0.263560	-2.139970	0.483390	0.168920	
